<?xml version="1.0" encoding="UTF-8" standalone="no"?>
<!-- Generator: Adobe Illustrator 16.0.0, SVG Export Plug-In . SVG Version: 6.00 Build 0)  -->

<svg
   xmlns:dc="http://purl.org/dc/elements/1.1/"
   xmlns:cc="http://creativecommons.org/ns#"
   xmlns:rdf="http://www.w3.org/1999/02/22-rdf-syntax-ns#"
   xmlns:svg="http://www.w3.org/2000/svg"
   xmlns="http://www.w3.org/2000/svg"
   xmlns:sodipodi="http://sodipodi.sourceforge.net/DTD/sodipodi-0.dtd"
   xmlns:inkscape="http://www.inkscape.org/namespaces/inkscape"
   version="1.1"
   id="Capa_1"
   x="0px"
   y="0px"
   width="445.744px"
   height="445.744px"
   viewBox="0 0 445.744 445.744"
   style="enable-background:new 0 0 445.744 445.744;"
   xml:space="preserve"
   inkscape:version="0.91 r13725"
   sodipodi:docname="icon.svg"><metadata
     id="metadata4246"><rdf:RDF><cc:Work
         rdf:about=""><dc:format>image/svg+xml</dc:format><dc:type
           rdf:resource="http://purl.org/dc/dcmitype/StillImage" /><dc:title></dc:title></cc:Work></rdf:RDF></metadata><defs
     id="defs4244" /><sodipodi:namedview
     pagecolor="#ffffff"
     bordercolor="#666666"
     borderopacity="1"
     objecttolerance="10"
     gridtolerance="10"
     guidetolerance="10"
     inkscape:pageopacity="0"
     inkscape:pageshadow="2"
     inkscape:window-width="1920"
     inkscape:window-height="1018"
     id="namedview4242"
     showgrid="false"
     inkscape:zoom="1.4975161"
     inkscape:cx="209.85043"
     inkscape:cy="222.87199"
     inkscape:window-x="-8"
     inkscape:window-y="-8"
     inkscape:window-maximized="1"
     inkscape:current-layer="Capa_1" /><path
     inkscape:connector-curvature="0"
     id="path4208"
     d="m 323.453,400.555 -4.643,-4.641 c -12.298,6.173 -25.911,9.404 -39.84,9.404 -16.354,0 -32.021,-4.387 -45.66,-12.592 l -167.924,0 0.014,-299.903 53.791,0 c 5.596,0 10.131,-4.533 10.131,-10.132 l 0,-55.418 198.906,0 0,215.583 c 4.792,3.209 9.306,6.907 13.474,11.075 5.372,5.373 10.001,11.404 13.801,17.907 l 0,-247.295 C 355.502,11.008 344.49,0 330.955,0 L 115.87,0 c -2.172,0 -4.252,0.862 -5.785,2.395 l -69.563,69.56 c -1.533,1.54 -2.396,3.619 -2.396,5.787 l 0,317.715 c 0,13.534 11.012,24.543 24.545,24.543 l 272.098,0 -0.316,-0.253 -1.748,-1.749 c -4.785,-4.784 -7.988,-10.864 -9.252,-17.443 z" /><path
     inkscape:connector-curvature="0"
     id="path4210"
     d="m 401.35,409.205 -34.77,-34.77 c -3.838,-3.837 -8.771,-5.905 -13.79,-6.223 l -11.811,-11.81 c 17.547,-27.896 14.188,-65.271 -10.075,-89.535 -28.167,-28.167 -73.995,-28.166 -102.162,0 -28.165,28.166 -28.165,73.995 0.001,102.161 24.265,24.266 61.64,27.622 89.534,10.077 l 11.811,11.809 c 0.315,5.021 2.385,9.953 6.222,13.79 l 34.771,34.77 c 8.359,8.36 21.911,8.358 30.271,0 8.355,-8.358 8.357,-21.91 -0.002,-30.269 z m -85.581,-55.31 c -19.819,19.819 -52.069,19.819 -71.891,0 -19.82,-19.82 -19.82,-52.069 -10e-4,-71.891 19.82,-19.82 52.068,-19.82 71.891,10e-4 19.82,19.82 19.82,52.069 0.001,71.89 z" /><g
     id="g4212" /><g
     id="g4214" /><g
     id="g4216" /><g
     id="g4218" /><g
     id="g4220" /><g
     id="g4222" /><g
     id="g4224" /><g
     id="g4226" /><g
     id="g4228" /><g
     id="g4230" /><g
     id="g4232" /><g
     id="g4234" /><g
     id="g4236" /><g
     id="g4238" /><g
     id="g4240" /><g
     id="g4824"
     transform="matrix(20,0,0,20,4858.0447,538.44682)"><path
       inkscape:connector-curvature="0"
       id="path4141"
       d="m -227.58959,-17.600638 0,-2.851 c 0,-0.578 -0.469,-1.047 -1.047,-1.047 l -8.832,0 c -0.578,0 -1.047,0.469 -1.047,1.047 l 0,2.851 c 0,0.579 0.469,1.048 1.047,1.048 l 8.833,0 c 0.578,-10e-4 1.046,-0.469 1.046,-1.048 z m -8.775,0.173 c -0.918,0 -1.456,-0.693 -1.456,-1.576 0,-0.927 0.592,-1.621 1.506,-1.621 0.951,0 1.469,0.712 1.469,1.566 10e-4,1.014 -0.614,1.631 -1.519,1.631 z m 4.566,-0.194 c -0.214,0.074 -0.624,0.175 -1.033,0.175 -0.564,0 -0.973,-0.143 -1.257,-0.418 -0.284,-0.267 -0.441,-0.67 -0.437,-1.125 0.004,-1.029 0.753,-1.618 1.768,-1.618 0.4,0 0.707,0.079 0.859,0.152 l -0.147,0.56 c -0.17,-0.073 -0.381,-0.133 -0.721,-0.133 -0.583,0 -1.024,0.33 -1.024,1 0,0.639 0.399,1.015 0.973,1.015 0.162,0 0.29,-0.018 0.346,-0.045 l 0,-0.648 -0.478,0 0,-0.546 1.152,0 -10e-4,1.631 0,0 z m 3.135,0 c -0.217,0.074 -0.625,0.175 -1.033,0.175 -0.566,0 -0.974,-0.143 -1.259,-0.418 -0.284,-0.267 -0.441,-0.67 -0.436,-1.125 0.004,-1.029 0.752,-1.618 1.767,-1.618 0.399,0 0.707,0.079 0.859,0.152 l -0.147,0.56 c -0.17,-0.073 -0.381,-0.133 -0.72,-0.133 -0.585,0 -1.025,0.33 -1.025,1 0,0.639 0.399,1.015 0.974,1.015 0.16,0 0.288,-0.018 0.344,-0.045 l 0,-0.648 -0.478,0 0,-0.546 1.153,0 0.001,1.631 0,0 z"
       style="fill:#030104" /><path
       inkscape:connector-curvature="0"
       id="path4143"
       d="m -236.33159,-20.069638 c -0.474,0 -0.75,0.451 -0.75,1.053 0,0.604 0.285,1.032 0.754,1.032 0.472,0 0.744,-0.451 0.744,-1.051 10e-4,-0.556 -0.266,-1.034 -0.748,-1.034 z"
       style="fill:#030104" /></g></svg>