<?xml version="1.0" encoding="UTF-8" standalone="no"?>
<!-- Uploaded to: SVG Repo, www.svgrepo.com, Generator: SVG Repo Mixer Tools -->

<svg
   height="800px"
   width="800px"
   version="1.1"
   id="Capa_1"
   viewBox="0 0 16.25 16.25"
   xml:space="preserve"
   sodipodi:docname="application.svg"
   inkscape:version="1.3 (0e150ed6c4, 2023-07-21)"
   xmlns:inkscape="http://www.inkscape.org/namespaces/inkscape"
   xmlns:sodipodi="http://sodipodi.sourceforge.net/DTD/sodipodi-0.dtd"
   xmlns="http://www.w3.org/2000/svg"
   xmlns:svg="http://www.w3.org/2000/svg"><defs
   id="defs4" /><sodipodi:namedview
   id="namedview4"
   pagecolor="#ffffff"
   bordercolor="#000000"
   borderopacity="0.25"
   inkscape:showpageshadow="2"
   inkscape:pageopacity="0.0"
   inkscape:pagecheckerboard="0"
   inkscape:deskcolor="#d1d1d1"
   inkscape:zoom="1.01625"
   inkscape:cx="400"
   inkscape:cy="400"
   inkscape:window-width="1920"
   inkscape:window-height="1009"
   inkscape:window-x="-8"
   inkscape:window-y="-8"
   inkscape:window-maximized="1"
   inkscape:current-layer="Capa_1" />&#10;<g
   id="g4"
   style="stroke-width:1.00000469;stroke-dasharray:none;fill:#1c274c;fill-opacity:1">&#10;	<g
   id="g3"
   style="stroke-width:1.00000469;stroke-dasharray:none;fill:#1c274c;fill-opacity:1">&#10;		<path
   style="fill:#1c274c;stroke-width:1.00000469;stroke-dasharray:none;fill-opacity:1"
   d="M11.209,7.077V4.226c0-0.578-0.469-1.047-1.047-1.047H1.33c-0.578,0-1.047,0.469-1.047,1.047v2.851    c0,0.579,0.469,1.048,1.047,1.048h8.833C10.741,8.124,11.209,7.656,11.209,7.077z M2.434,7.25c-0.918,0-1.456-0.693-1.456-1.576    c0-0.927,0.592-1.621,1.506-1.621c0.951,0,1.469,0.712,1.469,1.566C3.954,6.633,3.339,7.25,2.434,7.25z M7,7.056    C6.786,7.13,6.376,7.231,5.967,7.231c-0.564,0-0.973-0.143-1.257-0.418c-0.284-0.267-0.441-0.67-0.437-1.125    C4.277,4.659,5.026,4.07,6.041,4.07c0.4,0,0.707,0.079,0.859,0.152l-0.147,0.56c-0.17-0.073-0.381-0.133-0.721-0.133    c-0.583,0-1.024,0.33-1.024,1c0,0.639,0.399,1.015,0.973,1.015c0.162,0,0.29-0.018,0.346-0.045V5.971H5.849V5.425h1.152L7,7.056    L7,7.056z M10.135,7.056C9.918,7.13,9.51,7.231,9.102,7.231c-0.566,0-0.974-0.143-1.259-0.418    c-0.284-0.267-0.441-0.67-0.436-1.125C7.411,4.659,8.159,4.07,9.174,4.07c0.399,0,0.707,0.079,0.859,0.152l-0.147,0.56    c-0.17-0.073-0.381-0.133-0.72-0.133c-0.585,0-1.025,0.33-1.025,1c0,0.639,0.399,1.015,0.974,1.015    c0.16,0,0.288-0.018,0.344-0.045V5.971H8.981V5.425h1.153L10.135,7.056L10.135,7.056z"
   id="path1" />&#10;		<path
   style="fill:#1c274c;stroke-width:1.00000469;stroke-dasharray:none;fill-opacity:1"
   d="M2.467,4.608c-0.474,0-0.75,0.451-0.75,1.053c0,0.604,0.285,1.032,0.754,1.032    c0.472,0,0.744-0.451,0.744-1.051C3.216,5.086,2.949,4.608,2.467,4.608z"
   id="path2" />&#10;		<path
   style="fill:#1c274c;stroke-width:1.00000469;stroke-dasharray:none;fill-opacity:1"
   d="M15.531,0H4.128c-0.24,0-0.436,0.196-0.436,0.437v2.085h1.31V1.094h9.59v10.262l-2.601-0.002    c-0.129,0-0.251,0.052-0.343,0.142c-0.091,0.091-0.141,0.214-0.141,0.343l0.009,3.255H5.002V8.765h-1.31v7.048    c0,0.241,0.196,0.437,0.436,0.437h8.505c0.125,0,0.242-0.054,0.325-0.146l2.898-3.246c0.071-0.08,0.11-0.183,0.11-0.289V0.437    C15.967,0.196,15.772,0,15.531,0z"
   id="path3" />&#10;	</g>&#10;</g>&#10;<path
   fill-rule="evenodd"
   clip-rule="evenodd"
   d="m 8.1423894,9.93691 c -0.8413437,0 -1.5234375,0.682094 -1.5234375,1.523437 0,0.841344 0.6820938,1.523438 1.5234375,1.523438 0.8413438,0 1.5234375,-0.682094 1.5234375,-1.523438 0,-0.841343 -0.6820937,-1.523437 -1.5234375,-1.523437 z m -2.5390625,1.523437 c 0,-1.402307 1.1367552,-2.539062 2.5390625,-2.539062 1.4023073,0 2.5390626,1.136755 2.5390626,2.539062 0,0.517495 -0.154849,0.998834 -0.420672,1.400209 l 0.610458,0.610526 c 0.198318,0.198317 0.198318,0.519796 0,0.718114 -0.198318,0.198318 -0.519797,0.198318 -0.718114,0 L 9.5425977,13.578738 c -0.401375,0.265823 -0.8827135,0.420671 -1.4002083,0.420671 -1.4023073,0 -2.5390625,-1.136754 -2.5390625,-2.539062 z"
   fill="#1c274c"
   id="path1-9"
   style="stroke-width:0.677083" /></svg>
