<?xml version="1.0" encoding="UTF-8" standalone="no"?>
<!-- Generator: Adobe Illustrator 16.0.0, SVG Export Plug-In . SVG Version: 6.00 Build 0)  -->

<svg
   xmlns:dc="http://purl.org/dc/elements/1.1/"
   xmlns:cc="http://creativecommons.org/ns#"
   xmlns:rdf="http://www.w3.org/1999/02/22-rdf-syntax-ns#"
   xmlns:svg="http://www.w3.org/2000/svg"
   xmlns="http://www.w3.org/2000/svg"
   xmlns:sodipodi="http://sodipodi.sourceforge.net/DTD/sodipodi-0.dtd"
   xmlns:inkscape="http://www.inkscape.org/namespaces/inkscape"
   version="1.1"
   id="Capa_1"
   x="0px"
   y="0px"
   width="445.744px"
   height="445.744px"
   viewBox="0 0 445.744 445.744"
   style="enable-background:new 0 0 445.744 445.744;"
   xml:space="preserve"
   inkscape:version="0.91 r13725"
   sodipodi:docname="search.svg"><metadata
     id="metadata6025"><rdf:RDF><cc:Work
         rdf:about=""><dc:format>image/svg+xml</dc:format><dc:type
           rdf:resource="http://purl.org/dc/dcmitype/StillImage" /><dc:title></dc:title></cc:Work></rdf:RDF></metadata><defs
     id="defs6023" /><sodipodi:namedview
     pagecolor="#ffffff"
     bordercolor="#666666"
     borderopacity="1"
     objecttolerance="10"
     gridtolerance="10"
     guidetolerance="10"
     inkscape:pageopacity="0"
     inkscape:pageshadow="2"
     inkscape:window-width="693"
     inkscape:window-height="480"
     id="namedview6021"
     showgrid="false"
     inkscape:zoom="0.5294519"
     inkscape:cx="222.87199"
     inkscape:cy="222.87199"
     inkscape:window-x="617"
     inkscape:window-y="121"
     inkscape:window-maximized="0"
     inkscape:current-layer="Capa_1" /><g
     id="g5979"><g
       id="g5981"><g
         id="g5983"><path
           d="M272.354,146.535c-17.524,0-31.731,14.207-31.731,31.733c0,17.525,14.207,31.732,31.731,31.732     s31.758-14.208,31.758-31.732c0-0.594,0.146-107.827,0.146-107.827c0.008-6.138-2.425-12.027-6.763-16.37     c-4.337-4.343-10.225-6.783-16.361-6.783h-67.006c-12.771,0-23.124,10.353-23.124,23.125v61.739     c-2.658-0.722-5.452-1.115-8.339-1.115c-17.525,0-31.732,14.208-31.732,31.732c0,17.526,14.207,31.733,31.732,31.733     c17.526,0,31.733-14.207,31.733-31.733c0-1.384-0.024-92.357-0.024-92.357h66.76l-0.107,77.331     C278.269,146.962,275.361,146.535,272.354,146.535z"
           id="path5985" /><path
           d="M323.453,400.555l-4.643-4.641c-12.298,6.173-25.911,9.404-39.84,9.404c-16.354,0-32.021-4.387-45.66-12.592H65.386     L65.4,92.823h53.791c5.596,0,10.131-4.533,10.131-10.132V27.273h198.906v215.583c4.792,3.209,9.306,6.907,13.474,11.075     c5.372,5.373,10.001,11.404,13.801,17.907V24.543C355.502,11.008,344.49,0,330.955,0H115.87c-2.172,0-4.252,0.862-5.785,2.395     l-69.563,69.56c-1.533,1.54-2.396,3.619-2.396,5.787v317.715c0,13.534,11.012,24.543,24.545,24.543h272.098l-0.316-0.253     l-1.748-1.749C327.92,413.214,324.717,407.134,323.453,400.555z"
           id="path5987" /><path
           d="M401.35,409.205l-34.77-34.77c-3.838-3.837-8.771-5.905-13.79-6.223l-11.811-11.81     c17.547-27.896,14.188-65.271-10.075-89.535c-28.167-28.167-73.995-28.166-102.162,0c-28.165,28.166-28.165,73.995,0.001,102.161     c24.265,24.266,61.64,27.622,89.534,10.077l11.811,11.809c0.315,5.021,2.385,9.953,6.222,13.79l34.771,34.77     c8.359,8.36,21.911,8.358,30.271,0C409.707,431.116,409.709,417.564,401.35,409.205z M315.769,353.895     c-19.819,19.819-52.069,19.819-71.891,0c-19.82-19.82-19.82-52.069-0.001-71.891c19.82-19.82,52.068-19.82,71.891,0.001     C335.588,301.825,335.588,334.074,315.769,353.895z"
           id="path5989" /></g></g></g><g
     id="g5991" /><g
     id="g5993" /><g
     id="g5995" /><g
     id="g5997" /><g
     id="g5999" /><g
     id="g6001" /><g
     id="g6003" /><g
     id="g6005" /><g
     id="g6007" /><g
     id="g6009" /><g
     id="g6011" /><g
     id="g6013" /><g
     id="g6015" /><g
     id="g6017" /><g
     id="g6019" /></svg>